<svg xmlns="http://www.w3.org/2000/svg" width="35" height="45" viewBox="0 0 35 45">
    <g fill="none" fill-rule="evenodd">
        <rect width="32.793" height="42.938" x=".85" y=".864" stroke="#005192" stroke-width="1.7" rx="3"/>
        <path stroke="#005192" d="M15.124 10.667h13.033"/>
        <g stroke="#69B437">
            <path stroke-width=".56" d="M7.02 3.51c0 1.422-.856 2.703-2.17 3.245-1.314.543-2.825.24-3.828-.769C.02 4.98-.276 3.466.272 2.155.822.844 2.106-.007 3.528 0c1.939 0 3.51 1.572 3.51 3.51" transform="translate(5.833 7.02)"/>
            <path stroke-width=".63" d="M1.792 3.524L2.761 4.642 5.67 2.67" transform="translate(5.833 7.02)"/>
        </g>
        <path stroke="#005192" d="M15.124 22.333h13.033"/>
        <path stroke="#A9A9A9" stroke-width=".56" d="M12.854 22.198c0 1.421-.857 2.702-2.17 3.245-1.315.542-2.826.239-3.829-.769-1.002-1.008-1.298-2.52-.75-3.831.55-1.312 1.835-2.162 3.256-2.155 1.939 0 3.51 1.571 3.51 3.51"/>
        <path stroke="#005192" d="M15.124 34h13.033"/>
        <g stroke="#69B437">
            <path stroke-width=".56" d="M7.02 3.51c0 1.422-.856 2.703-2.17 3.245-1.314.543-2.825.24-3.828-.769C.02 4.98-.276 3.466.272 2.155.822.844 2.106-.007 3.528 0c1.939 0 3.51 1.572 3.51 3.51" transform="translate(5.833 30.354)"/>
            <path stroke-width=".63" d="M1.792 3.524L2.761 4.642 5.67 2.67" transform="translate(5.833 30.354)"/>
        </g>
    </g>
</svg>
