<svg xmlns="http://www.w3.org/2000/svg" width="35" height="33" viewBox="0 0 35 33">
    <g fill="none" fill-rule="evenodd">
        <g fill="#005EA2">
            <path d="M3.16 9.238L5.237 9.238 5.237 4.954 8.607.398 6.397.398 4.381 3.194 2.556.398.038.398 3.16 5.044zM9.501 9.238L14.939 9.238 14.939 7.38 11.529 7.38 11.529 5.627 14.405 5.627 14.405 3.818 11.529 3.818 11.529 2.216 14.892 2.216 14.892.398 9.501.398zM16.88 6.739l.172 2.364c.438.133.85.24 1.237.312.385.071.747.11 1.083.11 1.002-.015 1.786-.289 2.338-.82.554-.53.842-1.217.847-2.063-.008-.692-.212-1.24-.608-1.65-.395-.412-.916-.787-1.562-1.13l-1.025-.566c-.202-.12-.357-.241-.457-.374-.098-.138-.148-.28-.146-.428.005-.225.082-.397.253-.518.162-.131.4-.194.697-.197.236 0 .54.064.91.2.368.132.786.347 1.254.637V.546c-.415-.145-.806-.255-1.174-.334-.366-.074-.711-.115-1.042-.115-.874.012-1.566.248-2.071.695-.507.451-.767 1.03-.78 1.74 0 .521.138.99.418 1.405.276.413.7.789 1.274 1.117l.594.335c.451.255.8.47 1.06.664.26.192.393.434.393.727 0 .245-.107.453-.315.614-.207.157-.502.241-.882.247-.413-.003-.822-.084-1.218-.245-.396-.16-.81-.374-1.25-.657z" transform="translate(9.819)"/>
        </g>
        <path fill="#CF1A26" d="M4.986 26.404c-.09.142-.219.142-.352.068-.396-.222-.79-.442-1.185-.667-.163-.093-.206-.219-.133-.348.073-.13.203-.157.365-.07.2.108.395.222.593.332.198.111.398.219.593.335.155.093.2.223.119.35zm6.383-15.274c.072-.13.208-.163.366-.074.396.218.792.442 1.185.667.16.091.203.22.127.348-.075.127-.206.152-.37.063-.199-.107-.395-.22-.592-.332-.191-.106-.385-.212-.576-.323-.16-.095-.21-.22-.14-.349zm2.661 1.2c.073-.13.19-.151.314-.093.12.056.158.217.084.331-.081.12-.189.143-.323.078-.11-.08-.145-.189-.075-.315zM10 24.389L8.53 26.999c-2.516-1.414-5.036-2.83-7.565-4.254 2.365-4.206 4.732-8.417 7.108-12.64 2.526 1.42 5.04 2.834 7.565 4.251l-.397.707h.601c.086-.152.171-.303.255-.455.514-.914.189-2.092-.723-2.607l-5.062-2.846C9.32 8.6 8.18 8.91 7.621 9.906 5.168 14.264 2.718 18.623.27 22.984c-.298.533-.333 1.1-.08 1.647.134.293.37.537.561.802 1.875 1.053 3.749 2.106 5.624 3.162.017-.004.036-.014.052-.007.808.297 1.853-.05 2.371-.978.6-1.075 1.204-2.149 1.806-3.222H10z"/>
        <path fill="#005EA2" d="M6.116 23.9h1.392l1.198-2.813h4.037L14.01 23.9h1.392l-4.26-9.552h-.948L6.116 23.9zm3.104-4.023l1.448-3.438 1.531 3.438H9.22zm9.05 4.023h1.365v-9.496H18.27V23.9zm9.705-5.597l-3.147-3.9H23.52V23.9h1.365v-7.393l2.952 3.676h.25l2.924-3.676V23.9h1.365v-9.496h-1.281l-3.12 3.899z"/>
        <path fill="#1E1D1F" d="M11.124 26.573l-.242-.545-.225.545h.467zm-.317-.874h.15l.674 1.51h-.22l-.201-.444h-.642l-.188.445h-.222l.65-1.511zM12.96 26.861v.236c-.159.086-.34.13-.547.13-.168 0-.31-.033-.426-.101-.117-.067-.209-.16-.277-.279-.068-.119-.101-.245-.101-.383 0-.219.077-.402.234-.551.155-.15.348-.224.576-.224.159 0 .333.042.526.124v.231c-.176-.1-.347-.15-.514-.15-.173 0-.316.054-.428.163-.114.11-.171.245-.171.408 0 .165.055.301.168.407.112.107.255.159.429.159.179-.003.356-.059.53-.17zM14.474 26.861v.236c-.159.086-.34.13-.547.13-.168 0-.31-.033-.426-.101-.117-.067-.209-.16-.277-.279-.068-.119-.101-.245-.101-.383 0-.219.077-.402.234-.551.155-.15.348-.224.576-.224.159 0 .333.042.526.124v.231c-.176-.1-.347-.15-.514-.15-.173 0-.316.054-.428.163-.114.11-.171.245-.171.408 0 .165.055.301.168.407.112.107.255.159.429.159.18-.003.358-.059.53-.17zM15.44 25.89c-.171 0-.314.054-.425.162-.11.108-.166.246-.166.412 0 .161.055.296.166.404.111.107.25.161.417.161.168 0 .307-.055.42-.165.112-.109.167-.245.167-.41 0-.158-.055-.293-.168-.402-.109-.108-.248-.162-.411-.162zm-.008-.204c.232 0 .426.073.58.22.153.148.23.331.23.553 0 .222-.077.405-.232.55-.157.145-.352.218-.59.218-.226 0-.414-.073-.565-.218-.15-.146-.226-.327-.226-.547 0-.225.076-.41.228-.557.15-.146.342-.219.575-.219zM17.508 25.707h.217v.852c0 .115-.008.203-.025.261-.018.059-.038.108-.064.147-.025.04-.055.075-.09.105-.119.103-.274.154-.467.154-.197 0-.353-.051-.47-.152-.037-.032-.067-.067-.09-.107-.026-.04-.045-.087-.063-.144-.016-.057-.023-.145-.023-.266v-.85h.215v.852c0 .14.016.239.047.294.032.056.081.1.148.133.066.034.144.051.233.051.128 0 .23-.033.312-.1.042-.036.072-.077.091-.126.02-.05.027-.133.027-.25v-.854h.002zM19.172 25.707L19.377 25.707 19.377 27.21 19.191 27.21 18.187 26.052 18.187 27.21 17.985 27.21 17.985 25.707 18.159 25.707 19.172 26.874zM19.526 25.705L20.78 25.705 20.78 25.897 20.257 25.897 20.257 27.21 20.04 27.21 20.04 25.897 19.526 25.897zM21.508 25.707H22.508V27.208000000000002H21.508z"/>
        <path fill="#1E1D1F" d="M23.206 25.707L23.412 25.707 23.412 27.21 23.227 27.21 22.223 26.052 22.223 27.21 22.02 27.21 22.02 25.707 22.194 25.707 23.206 26.874zM25.452 25.707L25.651 25.707 25.651 27.21 25.436 27.21 25.436 26.041 24.974 26.621 24.934 26.621 24.467 26.041 24.467 27.21 24.251 27.21 24.251 25.707 24.456 25.707 24.955 26.324zM25.933 25.707H26.933V27.208000000000002H25.933z"/>
        <path fill="#1E1D1F" d="M27.631 25.707L27.835 25.707 27.835 27.21 27.65 27.21 26.646 26.052 26.646 27.21 26.445 27.21 26.445 25.707 26.619 25.707 27.631 26.874zM29.158 25.707h.215v.852c0 .115-.008.203-.025.261-.016.059-.038.108-.062.147-.025.04-.055.075-.09.105-.12.103-.274.154-.467.154-.197 0-.354-.051-.47-.152-.037-.032-.067-.067-.091-.107-.025-.04-.044-.087-.062-.144-.016-.057-.024-.145-.024-.266v-.85h.216v.852c0 .14.016.239.047.294.032.056.081.1.148.133.066.034.144.051.232.051.129 0 .232-.033.312-.1.043-.036.073-.077.092-.126.02-.05.027-.133.027-.25v-.854h.002zM29.5 25.705L30.756 25.705 30.756 25.897 30.231 25.897 30.231 27.21 30.016 27.21 30.016 25.897 29.5 25.897zM30.914 25.707L31.766 25.707 31.766 25.898 31.129 25.898 31.129 26.356 31.744 26.356 31.744 26.549 31.129 26.549 31.129 27.015 31.787 27.015 31.787 27.207 30.914 27.207zM32.344 26.58l-.163-.1c-.103-.064-.176-.124-.219-.186-.042-.06-.064-.13-.064-.209 0-.118.04-.214.123-.288.082-.074.189-.11.32-.11.125 0 .24.034.345.105v.244c-.107-.104-.225-.157-.35-.157-.07 0-.128.016-.172.05-.045.031-.069.074-.069.125 0 .044.016.087.051.126.033.04.087.081.16.124l.165.096c.184.11.275.25.275.419 0 .12-.04.218-.122.293-.08.074-.185.112-.315.112-.147 0-.283-.046-.405-.136v-.273c.115.148.25.22.404.22.066 0 .123-.018.168-.056.044-.039.066-.084.066-.141-.002-.09-.066-.176-.198-.259z"/>
        <g fill="#005EA2">
            <path d="M1.524 2.398c-.088.066-.168.114-.243.14-.074.024-.17.037-.285.037-.288 0-.522-.112-.705-.337C.111 2.013.02 1.72.02 1.362c0-.36.09-.65.272-.876C.471.261.708.15.996.15c.083 0 .162.011.236.032.075.02.171.061.292.12v.453C1.427.694 1.346.65 1.283.627 1.219.603 1.15.592 1.077.592.903.592.77.656.684.784c-.087.127-.13.32-.13.578 0 .257.043.45.13.576.087.127.217.192.393.192.095 0 .174-.014.24-.041.067-.027.135-.076.207-.144v.453zM3.536 1.75c0 .258-.072.46-.218.607-.146.147-.347.218-.605.218s-.46-.073-.607-.218c-.145-.146-.218-.349-.218-.607V.185h.535v1.633c0 .09.025.162.076.212.05.051.122.076.212.076s.16-.025.21-.076c.052-.05.077-.122.077-.212V.185h.535V1.75h.003z" transform="translate(7.285 29.457)"/>
            <path fill-rule="nonzero" d="M3.964.185h.67c.276 0 .488.056.635.168.147.113.22.274.22.485 0 .21-.073.37-.22.483-.043.031-.092.06-.146.084.098.068.175.188.227.358l.239.776h-.562l-.141-.586c-.038-.16-.076-.265-.116-.314-.038-.049-.101-.073-.19-.073H4.5v.973h-.534V.185h-.002zm.535.976h.135c.116 0 .198-.02.247-.063.05-.043.073-.115.073-.216 0-.101-.024-.174-.073-.217-.05-.043-.131-.063-.247-.063h-.135v.559zM5.866.185h.67c.276 0 .488.056.635.168.147.113.22.274.22.485 0 .21-.073.37-.22.483-.043.031-.092.06-.146.084.099.068.175.188.227.358l.239.776h-.562l-.141-.586c-.038-.16-.076-.265-.116-.314-.038-.049-.101-.073-.19-.073h-.08v.973h-.534V.185h-.002zm.534.976h.134c.116 0 .198-.02.247-.063.05-.043.073-.115.073-.216 0-.101-.023-.174-.073-.217C6.732.622 6.65.602 6.534.602H6.4v.559z" transform="translate(7.285 29.457)"/>
            <path d="M7.767 2.539L7.767.184 9.141.184 9.141.388 9.141.592 8.302.592 8.302 1.142 9.084 1.142 9.084 1.346 9.084 1.55 8.302 1.55 8.302 2.133 9.17 2.133 9.17 2.338 9.17 2.542 7.767 2.542zM10.036 2.539L9.786 2.539 9.536 2.539 9.536.184 9.781.184 10.028.184 10.677 1.493 10.677.184 10.928.184 11.178.184 11.178 2.539 10.955 2.539 10.731 2.539 10.036 1.137 10.036 2.539zM12.009.592L11.472.592 11.472.388 11.472.184 13.081.184 13.081.388 13.081.592 12.545.592 12.545 2.539 12.277 2.539 12.009 2.539 12.009.592z" transform="translate(7.285 29.457)"/>
            <path fill-rule="nonzero" d="M14.926.149h.552l.617 2.39h-.503l-.103-.466h-.564l-.105.466h-.51l.616-2.39zm.086 1.517h.385l-.193-.87-.192.87z" transform="translate(7.285 29.457)"/>
            <path d="M17.747 2.398c-.087.066-.168.114-.242.14-.075.024-.17.037-.285.037-.289 0-.523-.112-.705-.337-.18-.225-.272-.517-.272-.876 0-.36.09-.65.272-.876.18-.225.416-.337.705-.337.082 0 .161.011.236.032.074.02.17.061.291.12v.453c-.097-.06-.177-.103-.24-.127-.064-.024-.134-.035-.207-.035-.174 0-.305.064-.392.192-.087.127-.13.32-.13.578 0 .257.043.45.13.576.085.127.217.192.392.192.094 0 .175-.014.241-.041.067-.027.135-.076.206-.144v.453zM19.543 2.398c-.087.066-.168.114-.242.14-.075.024-.17.037-.285.037-.289 0-.523-.112-.705-.337-.18-.225-.273-.517-.273-.876 0-.36.09-.65.273-.876.18-.225.416-.337.705-.337.082 0 .161.011.236.032.074.02.17.061.291.12v.453c-.097-.06-.177-.103-.24-.127-.064-.024-.134-.035-.207-.035-.174 0-.305.064-.392.192-.087.127-.13.32-.13.578 0 .257.043.45.13.576.085.127.217.192.392.192.094 0 .175-.014.241-.041.067-.027.135-.076.206-.144v.453z" transform="translate(7.285 29.457)"/>
            <path fill-rule="nonzero" d="M20.097 2.238c-.172-.225-.258-.517-.258-.876 0-.36.086-.65.258-.876.173-.225.396-.337.669-.337.275 0 .498.112.67.337.17.225.258.516.258.876s-.086.65-.258.876c-.172.225-.395.337-.67.337-.273 0-.496-.112-.669-.337zm.965-.317c.065-.123.098-.31.098-.559 0-.25-.033-.437-.098-.56-.065-.124-.163-.186-.295-.186-.131 0-.23.062-.294.185-.065.124-.099.31-.099.561 0 .249.034.436.099.559.065.124.163.185.294.185.132 0 .23-.061.295-.185z" transform="translate(7.285 29.457)"/>
            <path d="M23.676 1.75c0 .258-.072.46-.218.607-.146.147-.347.218-.605.218s-.46-.073-.607-.218c-.147-.146-.218-.349-.218-.607V.185h.535v1.633c0 .09.025.162.076.212.05.051.122.076.212.076s.16-.025.211-.076c.05-.05.076-.122.076-.212V.185h.535V1.75h.003zM24.616 2.539L24.365 2.539 24.115 2.539 24.115.184 24.361.184 24.608.184 25.257 1.493 25.257.184 25.507.184 25.757.184 25.757 2.539 25.534 2.539 25.311 2.539 24.616 1.137zM26.589.592L26.052.592 26.052.388 26.052.184 27.661.184 27.661.388 27.661.592 27.124.592 27.124 2.539 26.857 2.539 26.589 2.539 26.589.592z" transform="translate(7.285 29.457)"/>
        </g>
    </g>
</svg>
