<?xml version="1.0" encoding="UTF-8"?>
<svg width="192px" height="192px" viewBox="0 0 192 192" version="1.1" xmlns="http://www.w3.org/2000/svg" xmlns:xlink="http://www.w3.org/1999/xlink">
    <!-- Generator: Sketch 52.2 (67145) - http://www.bohemiancoding.com/sketch -->
    <title>xxxhdpi/ic_launcher_APP</title>
    <desc>Created with Sketch.</desc>
    <g id="xxxhdpi/ic_launcher_APP" stroke="none" stroke-width="1" fill="none" fill-rule="evenodd">
        <rect fill="#FFFFFF" x="0" y="0" width="192" height="192"></rect>
        <g id="Logo_YES-AIM_CA_Modified" transform="translate(16.000000, 43.000000)">
            <g id="Group" transform="translate(30.807453, 0.000000)" fill="#005EA2">
                <polygon id="Path" points="9.91304348 28.9838509 16.4322981 28.9838509 16.4322981 15.5428571 27.0062112 1.24720497 20.0695652 1.24720497 13.7440994 10.0223602 8.01987578 1.24720497 0.119254658 1.24720497 9.91304348 15.826087"></polygon>
                <polygon id="Path" points="29.8086957 28.9838509 46.8720497 28.9838509 46.8720497 23.1552795 36.173913 23.1552795 36.173913 17.6546584 45.1975155 17.6546584 45.1975155 11.9801242 36.173913 11.9801242 36.173913 6.9515528 46.7229814 6.9515528 46.7229814 1.24720497 29.8086957 1.24720497"></polygon>
                <path d="M52.9639752,21.1428571 L53.5006211,28.5614907 C54.8770186,28.978882 56.1689441,29.3118012 57.3813665,29.5403727 C58.5888199,29.7639752 59.7267081,29.8832298 60.7801242,29.8832298 C63.9254658,29.8385093 66.3850932,28.978882 68.1142857,27.3093168 C69.8534161,25.6496894 70.757764,23.4931677 70.7726708,20.8397516 C70.7478261,18.668323 70.1068323,16.9490683 68.8645963,15.6621118 C67.6273292,14.3701863 65.9925466,13.1925466 63.9652174,12.1192547 L60.7503106,10.3403727 C60.1142857,9.96273292 59.6273292,9.58509317 59.3142857,9.16770186 C59.0062112,8.73540373 58.8521739,8.28819876 58.8571429,7.82608696 C58.8720497,7.12049689 59.115528,6.57888199 59.6521739,6.20124224 C60.1590062,5.78881988 60.9043478,5.59006211 61.8385093,5.58012422 C62.578882,5.58012422 63.5329193,5.78385093 64.6956522,6.21118012 C65.8484472,6.62360248 67.1602484,7.29937888 68.626087,8.20869565 L68.626087,1.71428571 C67.3242236,1.25714286 66.0968944,0.914285714 64.9440994,0.665838509 C63.7962733,0.432298137 62.7130435,0.30310559 61.6745342,0.30310559 C58.931677,0.342857143 56.7602484,1.08322981 55.1751553,2.48447205 C53.5850932,3.90062112 52.7701863,5.71925466 52.7304348,7.94534161 C52.7304348,9.58012422 53.1627329,11.0509317 54.042236,12.352795 C54.9068323,13.6496894 56.2385093,14.8273292 58.0372671,15.8559006 L59.9006211,16.9093168 C61.3167702,17.7093168 62.4099379,18.3850932 63.2248447,18.9913043 C64.0447205,19.5925466 64.4621118,20.352795 64.4621118,21.2720497 C64.4621118,22.042236 64.1242236,22.6931677 63.4732919,23.2 C62.8223602,23.6919255 61.8981366,23.9552795 60.7055901,23.9751553 C59.4086957,23.9652174 58.1267081,23.7118012 56.884472,23.2049689 C55.642236,22.7031056 54.3403727,22.0322981 52.9639752,21.1428571 Z" id="Path"></path>
            </g>
            <path d="M15.642236,82.842236 C15.3590062,83.289441 14.9565217,83.289441 14.5391304,83.0559006 C13.2968944,82.3602484 12.0596273,81.6695652 10.8223602,80.9639752 C10.310559,80.6708075 10.1763975,80.2782609 10.4049689,79.8708075 C10.6335404,79.463354 11.0409938,79.378882 11.5478261,79.6521739 C12.173913,79.9900621 12.7900621,80.3478261 13.4111801,80.6956522 C14.0322981,81.0434783 14.6583851,81.3813665 15.2695652,81.7440994 C15.7565217,82.0372671 15.9006211,82.4447205 15.642236,82.842236 Z M35.6720497,34.9217391 C35.8956522,34.5142857 36.3229814,34.4099379 36.8198758,34.6881988 C38.0621118,35.373913 39.3043478,36.0745342 40.536646,36.7801242 C41.0385093,37.068323 41.1726708,37.4708075 40.9341615,37.8732919 C40.7006211,38.2708075 40.2881988,38.3503106 39.7763975,38.0720497 C39.1503106,37.7341615 38.5341615,37.3813665 37.9180124,37.0285714 C37.3167702,36.6956522 36.710559,36.3627329 36.1093168,36.0149068 C35.6074534,35.7167702 35.4534161,35.3242236 35.6720497,34.9217391 Z M44.0198758,38.6881988 C44.2484472,38.2757764 44.6161491,38.2111801 45.0037267,38.3950311 C45.3813665,38.5689441 45.5006211,39.0757764 45.2670807,39.4335404 C45.0136646,39.8111801 44.6757764,39.8807453 44.2534161,39.6770186 C43.910559,39.4236025 43.8012422,39.0857143 44.0198758,38.6881988 Z M31.373913,76.5167702 C29.8385093,79.2496894 28.3080745,81.9726708 26.7677019,84.710559 C18.8720497,80.2732919 10.9664596,75.8310559 3.0310559,71.3639752 C10.4496894,58.1664596 17.8782609,44.9540373 25.331677,31.7018634 C33.2571429,36.1590062 41.1478261,40.5962733 49.068323,45.0434783 C48.6509317,45.7838509 48.2385093,46.5192547 47.821118,47.2596273 L49.7093168,47.2596273 C49.9776398,46.7826087 50.2459627,46.310559 50.5093168,45.8335404 C52.1192547,42.9664596 51.1006211,39.2695652 48.2385093,37.6546584 C42.9465839,34.6782609 37.6546584,31.7018634 32.357764,28.7254658 C29.242236,26.9813665 25.6645963,27.9552795 23.910559,31.0807453 C16.2136646,44.7552795 8.52670807,58.4298137 0.849689441,72.1142857 C-0.0844720497,73.7838509 -0.19378882,75.5627329 0.601242236,77.2819876 C1.01863354,78.2012422 1.75900621,78.9664596 2.36024845,79.7962733 C8.24347826,83.1006211 14.1217391,86.4049689 20.0049689,89.7192547 C20.0596273,89.7043478 20.1192547,89.6745342 20.1689441,89.6944099 C22.7031056,90.6285714 25.9826087,89.5403727 27.6074534,86.6285714 C29.4906832,83.2546584 31.3838509,79.8857143 33.2720497,76.5167702 L31.373913,76.5167702 Z" id="Shape" fill="#CF1A26"></path>
            <path d="M19.1900621,74.9863354 L23.557764,74.9863354 L27.3142857,66.1614907 L39.9801242,66.1614907 L43.9552795,74.9863354 L48.3229814,74.9863354 L34.9565217,45.0186335 L31.9850932,45.0186335 L19.1900621,74.9863354 Z M28.9291925,62.3652174 L33.4708075,51.5776398 L38.2757764,62.3652174 L28.9291925,62.3652174 Z M57.3217391,74.9863354 L61.6049689,74.9863354 L61.6049689,45.1925466 L57.3217391,45.1925466 L57.3217391,74.9863354 Z M87.7714286,57.426087 L77.8981366,45.1925466 L73.7937888,45.1925466 L73.7937888,74.9863354 L78.0770186,74.9863354 L78.0770186,51.7913043 L87.3391304,63.3242236 L88.1242236,63.3242236 L97.2968944,51.7913043 L97.2968944,74.9863354 L101.580124,74.9863354 L101.580124,45.1925466 L97.5602484,45.1925466 L87.7714286,57.426087 Z" id="Shape" fill="#005EA2"></path>
            <g id="Group-14" transform="translate(35.279503, 81.490683)" fill="#1E1D1F">
                <path d="M5.42066629,5.02975286 L4.09156061,2.04143682 L2.85801155,5.02975286 L5.42066629,5.02975286 Z M3.68327325,0.234548061 L4.50853494,0.234548061 L8.20049516,8.52191287 L6.99300699,8.52191287 L5.88976241,6.08087565 L2.3715415,6.08087565 L1.33779264,8.52191287 L0.121617513,8.52191287 L3.68327325,0.234548061 Z" id="Shape"></path>
                <path d="M15.488859,6.61078052 L15.488859,7.90513834 C14.6201624,8.37423446 13.6298484,8.61746949 12.491856,8.61746949 C11.5710377,8.61746949 10.7892108,8.43504322 10.1550623,8.06150371 C9.5122269,7.69665117 9.00838292,7.18412023 8.63484342,6.53259784 C8.26130391,5.88107545 8.07887764,5.18611823 8.07887764,4.43035226 C8.07887764,3.23155106 8.50453894,2.22386309 9.36454849,1.40728836 C10.2158711,0.590713634 11.2756808,0.182426269 12.5266038,0.182426269 C13.3953004,0.182426269 14.3508665,0.408287365 15.4106763,0.860009556 L15.4106763,2.12830648 C14.4464231,1.58102767 13.5082309,1.30304478 12.5874126,1.30304478 C11.6405334,1.30304478 10.8587065,1.5984016 10.241932,2.1978022 C9.61647049,2.7972028 9.30373974,3.54428181 9.30373974,4.43903922 C9.30373974,5.3424836 9.60778352,6.08956261 10.2245581,6.67158928 C10.8413326,7.25361595 11.6231594,7.5402858 12.5787256,7.5402858 C13.5603527,7.52291187 14.5332928,7.21886809 15.488859,6.61078052 Z" id="Path"></path>
                <path d="M23.7935977,6.61078052 L23.7935977,7.90513834 C22.9249012,8.37423446 21.9345872,8.61746949 20.7965947,8.61746949 C19.8757764,8.61746949 19.0939495,8.43504322 18.4598011,8.06150371 C17.8169656,7.69665117 17.3131217,7.18412023 16.9395822,6.53259784 C16.5660427,5.88107545 16.3836164,5.18611823 16.3836164,4.43035226 C16.3836164,3.23155106 16.8092777,2.22386309 17.6692872,1.40728836 C18.5206098,0.590713634 19.5804196,0.182426269 20.8313426,0.182426269 C21.7000391,0.182426269 22.6556053,0.408287365 23.715415,0.860009556 L23.715415,2.12830648 C22.7511619,1.58102767 21.8129696,1.30304478 20.8921513,1.30304478 C19.9452721,1.30304478 19.1634453,1.5984016 18.5466707,2.1978022 C17.9212092,2.7972028 17.6084785,3.54428181 17.6084785,4.43903922 C17.6084785,5.3424836 17.9125223,6.08956261 18.5292968,6.67158928 C19.1460713,7.25361595 19.9278982,7.5402858 20.8834644,7.5402858 C21.8737784,7.52291187 22.8467185,7.21886809 23.7935977,6.61078052 Z" id="Path"></path>
                <path d="M29.0926465,1.28567085 C28.1544542,1.28567085 27.3726274,1.58102767 26.7645398,2.1717413 C26.1564522,2.76245494 25.8524085,3.51822091 25.8524085,4.43035226 C25.8524085,5.31642271 26.1564522,6.05481475 26.7645398,6.64552838 C27.3726274,7.23624202 28.1370803,7.53159884 29.0492117,7.53159884 C29.97003,7.53159884 30.7344829,7.22755505 31.3512574,6.62815445 C31.968032,6.02875385 32.2720758,5.28167485 32.2720758,4.37823047 C32.2720758,3.50953394 31.968032,2.7711419 31.3512574,2.1717413 C30.7518568,1.58102767 29.9874039,1.28567085 29.0926465,1.28567085 Z M29.0492117,0.165052339 C30.3261955,0.165052339 31.3860053,0.564652739 32.2286409,1.3725405 C33.0712765,2.18042827 33.4969378,3.18811623 33.4969378,4.40429136 C33.4969378,5.62046649 33.0712765,6.62815445 32.219954,7.41866829 C31.3599444,8.21786909 30.2914477,8.61746949 28.9884029,8.61746949 C27.7461669,8.61746949 26.712418,8.21786909 25.8871563,7.41866829 C25.0618946,6.61946749 24.6449203,5.62915346 24.6449203,4.42166529 C24.6449203,3.18811623 25.0618946,2.1717413 25.8958433,1.36385354 C26.721105,0.564652739 27.7722278,0.165052339 29.0492117,0.165052339 Z" id="Shape"></path>
                <path d="M40.437823,0.277982887 L41.6279373,0.277982887 L41.6279373,4.95157017 C41.6279373,5.58571863 41.5845025,6.06350172 41.4889458,6.38491943 C41.3933892,6.70633714 41.2804587,6.97563306 41.1414672,7.19280719 C41.0024758,7.40998132 40.8374234,7.60109456 40.6463102,7.7661469 C39.9947878,8.33079964 39.1434652,8.60878252 38.0836555,8.60878252 C37.0064718,8.60878252 36.1464622,8.33079964 35.5036268,7.77483386 C35.3038266,7.60109456 35.1387743,7.40998132 35.0084698,7.19280719 C34.8694783,6.97563306 34.7652348,6.71502411 34.6696781,6.40229336 C34.5828085,6.08956261 34.5393737,5.60309256 34.5393737,4.9428832 L34.5393737,0.277982887 L35.7208009,0.277982887 L35.7208009,4.95157017 C35.7208009,5.72471007 35.8076706,6.26330192 35.9814099,6.5673457 C36.1551492,6.87138948 36.4244451,7.11462451 36.7892977,7.29705078 C37.1541502,7.47947704 37.5798115,7.57503366 38.0662815,7.57503366 C38.7699257,7.57503366 39.3345785,7.39260739 39.7776137,7.02775485 C40.0121618,6.82795465 40.1772141,6.60209356 40.2814577,6.33279764 C40.3857013,6.06350172 40.4291361,5.60309256 40.4291361,4.96025713 L40.4291361,0.277982887 L40.437823,0.277982887 Z" id="Path"></path>
                <polygon id="Path" points="49.5678235 0.277982887 50.688442 0.277982887 50.688442 8.52191287 49.6720671 8.52191287 44.1645311 2.1717413 44.1645311 8.52191287 43.0525996 8.52191287 43.0525996 0.277982887 44.0081657 0.277982887 49.5678235 6.68027625"></polygon>
                <polygon id="Path" points="51.5050167 0.269295921 58.3850932 0.269295921 58.3850932 1.32041871 55.5183946 1.32041871 55.5183946 8.52191287 54.3282804 8.52191287 54.3282804 1.32041871 51.5050167 1.32041871"></polygon>
                <rect id="Rectangle" x="62.3810972" y="0.277982887" width="1.18142727" height="8.23524302"></rect>
                <polygon id="Path" points="71.6935239 0.277982887 72.8228293 0.277982887 72.8228293 8.52191287 71.8064544 8.52191287 66.2989185 2.1717413 66.2989185 8.52191287 65.1869869 8.52191287 65.1869869 0.277982887 66.1425531 0.277982887 71.6935239 6.68027625"></polygon>
                <polygon id="Path" points="84.0116405 0.277982887 85.1061981 0.277982887 85.1061981 8.52191287 83.9247709 8.52191287 83.9247709 2.11093255 81.388177 5.29036181 81.1710029 5.29036181 78.6083482 2.11093255 78.6083482 8.52191287 77.4269209 8.52191287 77.4269209 0.277982887 78.5475394 0.277982887 81.2839335 3.66589932"></polygon>
                <rect id="Rectangle" x="86.652478" y="0.277982887" width="1.18142727" height="8.23524302"></rect>
                <polygon id="Path" points="95.9649047 0.277982887 97.0855232 0.277982887 97.0855232 8.52191287 96.0691482 8.52191287 90.5616123 2.1717413 90.5616123 8.52191287 89.4583677 8.52191287 89.4583677 0.277982887 90.4139339 0.277982887 95.9649047 6.68027625"></polygon>
                <path d="M104.339139,0.277982887 L105.520566,0.277982887 L105.520566,4.95157017 C105.520566,5.58571863 105.477132,6.06350172 105.381575,6.38491943 C105.294705,6.70633714 105.173088,6.97563306 105.042783,7.19280719 C104.903792,7.40998132 104.73874,7.60109456 104.547626,7.7661469 C103.896104,8.33079964 103.044781,8.60878252 101.984972,8.60878252 C100.907788,8.60878252 100.047778,8.33079964 99.4049429,7.77483386 C99.2051427,7.60109456 99.0400903,7.40998132 98.9097859,7.19280719 C98.7707944,6.97563306 98.6665508,6.71502411 98.5709942,6.40229336 C98.4841246,6.08956261 98.4406897,5.60309256 98.4406897,4.9428832 L98.4406897,0.277982887 L99.622117,0.277982887 L99.622117,4.95157017 C99.622117,5.72471007 99.7089867,6.26330192 99.882726,6.5673457 C100.056465,6.87138948 100.325761,7.11462451 100.690614,7.29705078 C101.055466,7.47947704 101.481128,7.57503366 101.967598,7.57503366 C102.671242,7.57503366 103.235895,7.39260739 103.67893,7.02775485 C103.913478,6.82795465 104.07853,6.60209356 104.182774,6.33279764 C104.287017,6.06350172 104.330452,5.60309256 104.330452,4.96025713 L104.330452,0.277982887 L104.339139,0.277982887 Z" id="Path"></path>
                <polygon id="Path" points="106.215524 0.269295921 113.104287 0.269295921 113.104287 1.32041871 110.228902 1.32041871 110.228902 8.52191287 109.047474 8.52191287 109.047474 1.32041871 106.215524 1.32041871"></polygon>
                <polygon id="Path" points="113.972984 0.277982887 118.646571 0.277982887 118.646571 1.32910568 115.154411 1.32910568 115.154411 3.83963862 118.524953 3.83963862 118.524953 4.89944838 115.154411 4.89944838 115.154411 7.45341615 118.759501 7.45341615 118.759501 8.50453894 113.972984 8.50453894"></polygon>
                <path d="M121.817313,5.06450072 L120.922556,4.51722191 C120.357903,4.1697433 119.958303,3.83963862 119.723755,3.50084698 C119.489206,3.1707423 119.367589,2.78851583 119.367589,2.35416757 C119.367589,1.70264518 119.59345,1.18142727 120.045172,0.773139904 C120.496894,0.364852539 121.078921,0.165052339 121.799939,0.165052339 C122.486209,0.165052339 123.120358,0.356165574 123.693698,0.747079008 L123.693698,2.08487165 C123.102984,1.51153195 122.460149,1.22486209 121.773878,1.22486209 C121.391652,1.22486209 121.070234,1.31173175 120.826999,1.49415802 C120.583764,1.66789732 120.45346,1.90244538 120.45346,2.18042827 C120.45346,2.42366329 120.540329,2.65821135 120.731442,2.87538548 C120.913869,3.09255961 121.209226,3.31842071 121.608826,3.55296877 L122.51227,4.08287365 C123.519958,4.68227425 124.023802,5.44672719 124.023802,6.37623246 C124.023802,7.03644182 123.797941,7.57503366 123.354906,7.98332103 C122.911871,8.39160839 122.338531,8.60009556 121.6262,8.60009556 C120.818312,8.60009556 120.071233,8.34817357 119.402337,7.85301655 L119.402337,6.35885853 C120.036485,7.1667463 120.774877,7.5663467 121.617513,7.5663467 C121.982365,7.5663467 122.295096,7.46210311 122.538331,7.25361595 C122.781566,7.04512878 122.903184,6.79320679 122.903184,6.48047605 C122.894497,5.99400599 122.538331,5.51622291 121.817313,5.06450072 Z" id="Path"></path>
            </g>
            <g id="Group-13" transform="translate(35.776398, 94.694419)" fill="#005EA2">
                <path d="M6.82874889,10.7471162 C6.43833185,11.0452529 6.07630878,11.2582076 5.74267968,11.3717835 C5.40905058,11.4853594 4.98314108,11.5421473 4.4649512,11.5421473 C3.17302573,11.5421473 2.12244898,11.0381544 1.30612245,10.0301686 C0.49689441,9.02218279 0.0851818988,7.71606034 0.0851818988,6.10470275 C0.0851818988,4.49334516 0.489795918,3.18722272 1.30612245,2.17923691 C2.11535049,1.17125111 3.17302573,0.667258208 4.4649512,0.667258208 C4.83407276,0.667258208 5.18899734,0.716947649 5.52262644,0.809228039 C5.85625555,0.901508429 6.28926353,1.08606921 6.82874889,1.3487134 L6.82874889,3.37888199 C6.39574091,3.10913931 6.03371783,2.91748004 5.74977817,2.81100266 C5.46583851,2.70452529 5.15350488,2.65483585 4.82697427,2.65483585 C4.0461402,2.65483585 3.45696539,2.93877551 3.06654836,3.51375333 C2.67613132,4.08163265 2.48447205,4.94764862 2.48447205,6.10470275 C2.48447205,7.25465839 2.67613132,8.12067436 3.06654836,8.68855368 C3.45696539,9.25643301 4.0390417,9.54747116 4.82697427,9.54747116 C5.25288376,9.54747116 5.60780834,9.48358474 5.90594499,9.36291038 C6.20408163,9.24223602 6.50931677,9.02218279 6.82874889,8.71694765 L6.82874889,10.7471162 Z" id="Path"></path>
                <path d="M15.8509317,7.84383319 C15.8509317,9.00088731 15.5244011,9.90239574 14.8713398,10.5625555 C14.2182786,11.2227152 13.3167702,11.5421473 12.1597161,11.5421473 C11.0026619,11.5421473 10.1011535,11.2156167 9.44099379,10.5625555 C8.78793256,9.90949423 8.46140195,9.00088731 8.46140195,7.84383319 L8.46140195,0.830523514 L9.66104703,0.830523514 L10.8606921,0.830523514 L10.8606921,8.14906832 C10.8606921,8.55368234 10.974268,8.87311446 11.2014197,9.10026619 C11.4285714,9.32741792 11.7480035,9.44099379 12.1526176,9.44099379 C12.5572316,9.44099379 12.8695652,9.32741792 13.0967169,9.10026619 C13.3238687,8.87311446 13.4374445,8.55368234 13.4374445,8.14906832 L13.4374445,0.830523514 L14.6370896,0.830523514 L15.8367347,0.830523514 L15.8367347,7.84383319 L15.8509317,7.84383319 Z" id="Path"></path>
                <path d="M17.7675244,0.830523514 L18.9671695,0.830523514 L20.7701863,0.830523514 C22.0053239,0.830523514 22.9565217,1.07897072 23.6166815,1.58296362 C24.2768412,2.08695652 24.6033718,2.81100266 24.6033718,3.75510204 C24.6033718,4.69920142 24.2768412,5.41614907 23.6166815,5.92014197 C23.4250222,6.0621118 23.2049689,6.18988465 22.9636202,6.29636202 C23.4037267,6.60159716 23.7444543,7.14108252 23.9787045,7.90062112 L25.0505768,11.378882 L23.7941437,11.378882 L22.5306122,11.378882 L21.8988465,8.75244011 C21.7284827,8.03549246 21.5581189,7.56699201 21.3806566,7.34693878 C21.2102928,7.12688554 20.9263531,7.02040816 20.5288376,7.02040816 L20.173913,7.02040816 L20.173913,11.378882 L18.974268,11.378882 L17.7746229,11.378882 L17.7746229,0.830523514 L17.7675244,0.830523514 Z M20.1668146,5.20319432 L20.7701863,5.20319432 C21.2883762,5.20319432 21.6574978,5.11091393 21.877551,4.91925466 C22.0976043,4.72759539 22.2040816,4.40816327 22.2040816,3.9538598 C22.2040816,3.49955634 22.0976043,3.17302573 21.877551,2.98136646 C21.6574978,2.78970719 21.2883762,2.6974268 20.7701863,2.6974268 L20.1668146,2.6974268 L20.1668146,5.20319432 Z" id="Shape" fill-rule="nonzero"></path>
                <path d="M26.2928128,0.830523514 L27.4924579,0.830523514 L29.2954747,0.830523514 C30.5306122,0.830523514 31.4818101,1.07897072 32.1419698,1.58296362 C32.8021295,2.08695652 33.1286602,2.81100266 33.1286602,3.75510204 C33.1286602,4.69920142 32.8021295,5.41614907 32.1419698,5.92014197 C31.9503106,6.0621118 31.7302573,6.18988465 31.4889086,6.29636202 C31.9290151,6.60159716 32.2697427,7.14108252 32.5039929,7.90062112 L33.5758651,11.378882 L32.3194321,11.378882 L31.0559006,11.378882 L30.4241349,8.75244011 C30.2537711,8.03549246 30.0834073,7.56699201 29.905945,7.34693878 C29.7355812,7.12688554 29.4516415,7.02040816 29.054126,7.02040816 L28.6992014,7.02040816 L28.6992014,11.378882 L27.4995563,11.378882 L26.2999113,11.378882 L26.2999113,0.830523514 L26.2928128,0.830523514 Z M28.6850044,5.20319432 L29.2883762,5.20319432 C29.8065661,5.20319432 30.1756877,5.11091393 30.3957409,4.91925466 C30.6157941,4.72759539 30.7222715,4.40816327 30.7222715,3.9538598 C30.7222715,3.49955634 30.6157941,3.17302573 30.3957409,2.98136646 C30.1756877,2.78970719 29.8065661,2.6974268 29.2883762,2.6974268 L28.6850044,2.6974268 L28.6850044,5.20319432 Z" id="Shape" fill-rule="nonzero"></path>
                <polygon id="Path" points="34.8110027 11.378882 34.8110027 0.823425022 40.9724933 0.823425022 40.9724933 1.73913043 40.9724933 2.65483585 37.2102928 2.65483585 37.2102928 5.11801242 40.7169476 5.11801242 40.7169476 6.03371783 40.7169476 6.94942325 37.2102928 6.94942325 37.2102928 9.56166815 41.1002662 9.56166815 41.1002662 10.4773736 41.1002662 11.393079 34.8110027 11.393079"></polygon>
                <polygon id="Path" points="44.9831411 11.378882 43.8615794 11.378882 42.7400177 11.378882 42.7400177 0.823425022 43.8402839 0.823425022 44.9476486 0.823425022 47.8580302 6.69387755 47.8580302 0.823425022 48.9795918 0.823425022 50.1011535 0.823425022 50.1011535 11.378882 49.1002662 11.378882 48.0993789 11.378882 44.9831411 5.09671695 44.9831411 11.378882"></polygon>
                <polygon id="Path" points="53.8278616 2.65483585 51.4214729 2.65483585 51.4214729 1.73913043 51.4214729 0.823425022 58.6335404 0.823425022 58.6335404 1.73913043 58.6335404 2.65483585 56.2271517 2.65483585 56.2271517 11.378882 55.0275067 11.378882 53.8278616 11.378882 53.8278616 2.65483585"></polygon>
                <path d="M66.9032831,0.667258208 L68.1384206,0.667258208 L69.3735581,0.667258208 L72.1419698,11.378882 L71.0133097,11.378882 L69.8846495,11.378882 L69.4232476,9.29192547 L66.8961846,9.29192547 L66.4276841,11.378882 L65.284827,11.378882 L64.1419698,11.378882 L66.9032831,0.667258208 Z M67.2866016,7.46761313 L69.011535,7.46761313 L68.1455191,3.57054126 L67.2866016,7.46761313 Z" id="Shape" fill-rule="nonzero"></path>
                <path d="M79.5456965,10.7471162 C79.1552795,11.0452529 78.7932564,11.2582076 78.4596273,11.3717835 C78.1259982,11.4853594 77.7000887,11.5421473 77.1818988,11.5421473 C75.8899734,11.5421473 74.8393966,11.0381544 74.0230701,10.0301686 C73.2138421,9.02218279 72.8021295,7.71606034 72.8021295,6.10470275 C72.8021295,4.49334516 73.2067436,3.18722272 74.0230701,2.17923691 C74.8322981,1.17125111 75.8899734,0.667258208 77.1818988,0.667258208 C77.5510204,0.667258208 77.905945,0.716947649 78.2395741,0.809228039 C78.5732032,0.901508429 79.0062112,1.08606921 79.5456965,1.3487134 L79.5456965,3.37888199 C79.1126886,3.10913931 78.7506655,2.91748004 78.4667258,2.81100266 C78.1827862,2.70452529 77.8704525,2.65483585 77.5439219,2.65483585 C76.7630878,2.65483585 76.173913,2.93877551 75.783496,3.51375333 C75.393079,4.08163265 75.2014197,4.94764862 75.2014197,6.10470275 C75.2014197,7.25465839 75.393079,8.12067436 75.783496,8.68855368 C76.1668146,9.25643301 76.7559894,9.54747116 77.5439219,9.54747116 C77.9627329,9.54747116 78.324756,9.48358474 78.6228926,9.36291038 C78.9210293,9.24223602 79.2262644,9.02218279 79.5456965,8.71694765 L79.5456965,10.7471162 Z" id="Path"></path>
                <path d="M87.595386,10.7471162 C87.2049689,11.0452529 86.8429459,11.2582076 86.5093168,11.3717835 C86.1756877,11.4853594 85.7497782,11.5421473 85.2315883,11.5421473 C83.9396628,11.5421473 82.8890861,11.0381544 82.0727595,10.0301686 C81.2635315,9.02218279 80.851819,7.71606034 80.851819,6.10470275 C80.851819,4.49334516 81.256433,3.18722272 82.0727595,2.17923691 C82.8819876,1.17125111 83.9396628,0.667258208 85.2315883,0.667258208 C85.6007098,0.667258208 85.9556344,0.716947649 86.2892635,0.809228039 C86.6228926,0.901508429 87.0559006,1.08606921 87.595386,1.3487134 L87.595386,3.37888199 C87.162378,3.10913931 86.8003549,2.91748004 86.5164153,2.81100266 C86.2324756,2.70452529 85.920142,2.65483585 85.5936114,2.65483585 C84.8127773,2.65483585 84.2236025,2.93877551 83.8331854,3.51375333 C83.4427684,4.08163265 83.2511091,4.94764862 83.2511091,6.10470275 C83.2511091,7.25465839 83.4427684,8.12067436 83.8331854,8.68855368 C84.216504,9.25643301 84.8056788,9.54747116 85.5936114,9.54747116 C86.0124224,9.54747116 86.3744454,9.48358474 86.6725821,9.36291038 C86.9707187,9.24223602 87.2759539,9.02218279 87.595386,8.71694765 L87.595386,10.7471162 Z" id="Path"></path>
                <path d="M90.079858,10.0301686 C89.3061224,9.02218279 88.9228039,7.71606034 88.9228039,6.10470275 C88.9228039,4.49334516 89.3061224,3.18722272 90.079858,2.17923691 C90.8535936,1.17125111 91.8544809,0.667258208 93.0754215,0.667258208 C94.310559,0.667258208 95.3114463,1.17125111 96.0780834,2.17923691 C96.8447205,3.18722272 97.2351375,4.49334516 97.2351375,6.10470275 C97.2351375,7.71606034 96.851819,9.02218279 96.0780834,10.0301686 C95.3114463,11.0381544 94.310559,11.5421473 93.0754215,11.5421473 C91.8544809,11.5421473 90.8535936,11.0381544 90.079858,10.0301686 Z M94.4028394,8.61047028 C94.6938776,8.05678793 94.8429459,7.21916593 94.8429459,6.10470275 C94.8429459,4.98314108 94.6938776,4.14551908 94.4028394,3.59183673 C94.1118012,3.03815439 93.6716948,2.76131322 93.08252,2.76131322 C92.4933452,2.76131322 92.0532387,3.03815439 91.7622005,3.59183673 C91.4711624,4.14551908 91.3220941,4.98314108 91.3220941,6.10470275 C91.3220941,7.21916593 91.4711624,8.05678793 91.7622005,8.61047028 C92.0532387,9.16415262 92.4933452,9.44099379 93.08252,9.44099379 C93.6716948,9.44099379 94.1118012,9.16415262 94.4028394,8.61047028 Z" id="Shape" fill-rule="nonzero"></path>
                <path d="M106.122449,7.84383319 C106.122449,9.00088731 105.795918,9.90239574 105.142857,10.5625555 C104.489796,11.2227152 103.588287,11.5421473 102.431233,11.5421473 C101.274179,11.5421473 100.372671,11.2156167 99.7125111,10.5625555 C99.0523514,9.90949423 98.7329193,9.00088731 98.7329193,7.84383319 L98.7329193,0.830523514 L99.9325643,0.830523514 L101.132209,0.830523514 L101.132209,8.14906832 C101.132209,8.55368234 101.245785,8.87311446 101.472937,9.10026619 C101.700089,9.32741792 102.019521,9.44099379 102.424135,9.44099379 C102.828749,9.44099379 103.141083,9.32741792 103.368234,9.10026619 C103.595386,8.87311446 103.708962,8.55368234 103.708962,8.14906832 L103.708962,0.830523514 L104.908607,0.830523514 L106.108252,0.830523514 L106.108252,7.84383319 L106.122449,7.84383319 Z" id="Path"></path>
                <polygon id="Path" points="110.331854 11.378882 109.210293 11.378882 108.088731 11.378882 108.088731 0.823425022 109.188997 0.823425022 110.296362 0.823425022 113.206744 6.69387755 113.206744 0.823425022 114.328305 0.823425022 115.449867 0.823425022 115.449867 11.378882 114.44898 11.378882 113.448092 11.378882 110.331854 5.09671695"></polygon>
                <polygon id="Path" points="119.176575 2.65483585 116.770186 2.65483585 116.770186 1.73913043 116.770186 0.823425022 123.982254 0.823425022 123.982254 1.73913043 123.982254 2.65483585 121.575865 2.65483585 121.575865 11.378882 120.37622 11.378882 119.176575 11.378882 119.176575 2.65483585"></polygon>
            </g>
        </g>
    </g>
</svg>