<?xml version="1.0" encoding="UTF-8"?>
<svg width="74px" height="74px" viewBox="0 0 74 74" version="1.1" xmlns="http://www.w3.org/2000/svg" xmlns:xlink="http://www.w3.org/1999/xlink">
    <!-- Generator: Sketch 52.2 (67145) - http://www.bohemiancoding.com/sketch -->
    <title>PDF_Icon</title>
    <desc>Created with Sketch.</desc>
    <defs>
        <rect id="path-1" x="0" y="0" width="74" height="74"></rect>
        <path d="M15.1162791,0 L21.3659765,0 C23.2764964,0 25,1.72350356 25,3.63402348 L25,9.88372093 L15.1162791,0 Z" id="path-3"></path>
        <filter x="-40.5%" y="-60.7%" width="180.9%" height="180.9%" filterUnits="objectBoundingBox" id="filter-4">
            <feOffset dx="0" dy="-2" in="SourceAlpha" result="shadowOffsetOuter1"></feOffset>
            <feGaussianBlur stdDeviation="1" in="shadowOffsetOuter1" result="shadowBlurOuter1"></feGaussianBlur>
            <feComposite in="shadowBlurOuter1" in2="SourceAlpha" operator="out" result="shadowBlurOuter1"></feComposite>
            <feColorMatrix values="0 0 0 0 0   0 0 0 0 0   0 0 0 0 0  0 0 0 0.0909637238 0" type="matrix" in="shadowBlurOuter1"></feColorMatrix>
        </filter>
    </defs>
    <g id="Page-1" stroke="none" stroke-width="1" fill="none" fill-rule="evenodd">
        <g id="AU-DVU-Portal-Copy" transform="translate(-1043.000000, -239.000000)">
            <g id="PDF_Icon" transform="translate(1043.000000, 239.000000)">
                <g id="Screen-Shot-2017-06-27-at-11.05.23-AM-Copy-3">
                    <mask id="mask-2" fill="white">
                        <use xlink:href="#path-1"></use>
                    </mask>
                    <use id="Rectangle-3" fill="#EBEBEB" xlink:href="#path-1"></use>
                </g>
                <g id="files-icon-PDF" transform="translate(25.000000, 22.000000)">
                    <path d="M15,0 L25,9.88372093 L25,26.1918605 C25,28.1023804 23.4329966,29.6511628 21.5,29.6511628 L3.5,29.6511628 C1.56700338,29.6511628 0,28.1023804 0,26.1918605 L0,3.45930233 C0,1.54878241 1.56700338,0 3.5,0 L15,0 Z" id="Combined-Shape" fill="#FFFFFF"></path>
                    <path d="M11.5116279,11.0465116 C10.873568,11.0465116 10.3488372,11.571243 10.3488372,12.2093023 C10.3488372,13.0024988 10.7895528,13.9872233 11.2536337,14.9127907 C10.8908795,16.0483555 10.4792353,17.2652758 9.95276163,18.2921512 C8.87520395,18.7149565 7.91423709,19.0292156 7.33648256,19.4949128 C7.32747354,19.5041255 7.31898184,19.5138303 7.31104651,19.5239826 C7.09992003,19.7398895 6.97674419,20.0338488 6.97674419,20.3488372 C6.97674419,20.9868953 7.50147517,21.5116279 8.13953488,21.5116279 C8.45067988,21.5116279 8.75099942,21.3955174 8.96802326,21.1736919 C8.97553412,21.1679339 8.98280758,21.1618727 8.98982558,21.1555233 C9.41511105,20.6476951 9.91657349,19.7264808 10.3633721,18.8844477 C11.3931085,18.4793757 12.4723724,18.0672005 13.5138081,17.8197674 C14.2740767,18.4324722 15.3739386,18.8372093 16.2790698,18.8372093 C16.9171291,18.8372093 17.4418605,18.3124767 17.4418605,17.6744186 C17.4418605,17.0363605 16.9171291,16.5116279 16.2790698,16.5116279 C15.5532056,16.5116279 14.4983797,16.7707377 13.6918605,17.0421512 C13.0381271,16.4284414 12.437506,15.6619626 12.005814,14.8473837 C12.3142533,13.8972113 12.6744186,12.9464778 12.6744186,12.2093023 C12.6744186,11.571243 12.1496879,11.0465116 11.5116279,11.0465116 Z M11.5116279,11.744186 C11.7726363,11.744186 11.9767442,11.9482942 11.9767442,12.2093023 C11.9767442,12.5583058 11.7898566,13.2008733 11.5734012,13.8917151 C11.2841667,13.2196547 11.0465116,12.5748686 11.0465116,12.2093023 C11.0465116,11.9482942 11.2506197,11.744186 11.5116279,11.744186 Z M11.7114826,15.7231105 C12.0612107,16.279407 12.4708119,16.7970523 12.9178779,17.2565407 C12.2283115,17.4450988 11.5548576,17.6867035 10.8902616,17.9396802 C11.2112526,17.2151919 11.4682223,16.463407 11.7114826,15.7231105 Z M16.2790698,17.2093023 C16.5400786,17.2093023 16.744186,17.413407 16.744186,17.6744186 C16.744186,17.9354302 16.5400786,18.1395349 16.2790698,18.1395349 C15.7550769,18.1395349 15.0103338,17.903 14.4149709,17.5726744 C15.0983507,17.3794419 15.8440337,17.2093023 16.2790698,17.2093023 Z M9.33866279,19.2914244 C9.01167256,19.8750988 8.68664314,20.4198895 8.45930233,20.6940407 C8.38164244,20.7682965 8.27833512,20.8139535 8.13953488,20.8139535 C7.8785264,20.8139535 7.6744186,20.6098372 7.6744186,20.3488372 C7.6744186,20.2260116 7.72662151,20.1040174 7.79796512,20.025436 C8.07074023,19.814343 8.66417558,19.5613779 9.33866279,19.2914244 Z" id="acrobat-shape" stroke="#454ADE" stroke-width="0.2" fill="#454ADE" fill-rule="nonzero"></path>
                    <g id="Path" transform="translate(20.058140, 4.941860) scale(-1, -1) translate(-20.058140, -4.941860) ">
                        <use fill="black" fill-opacity="1" filter="url(#filter-4)" xlink:href="#path-3"></use>
                        <use fill-opacity="0.4" fill="#FFFFFF" fill-rule="evenodd" xlink:href="#path-3"></use>
                    </g>
                </g>
            </g>
        </g>
    </g>
</svg>