<svg xmlns="http://www.w3.org/2000/svg" width="37" height="46" viewBox="0 0 37 46">
    <g fill="none" fill-rule="evenodd">
        <path stroke="#005192" stroke-width="1.7" d="M34.6 21.763V2.02a2 2 0 00-2-2H2.172a2 2 0 00-2 2v36.994a2 2 0 002 2h16.426" transform="translate(1.329 1.26)"/>
        <path fill="#B02A30" fill-rule="nonzero" d="M33.964 30.78v-1.44c.927 0 1.68-.716 1.68-1.6v-1.864c0-.442-.377-.8-.84-.8h-11.22c-.464 0-.84.358-.84.8v1.864c0 .884.752 1.6 1.68 1.6v1.44c.002 1.492.774 2.886 2.065 3.729-1.27.858-2.023 2.252-2.015 3.737v1.44c-.928 0-1.68.716-1.68 1.6v1.864c0 .442.376.8.84.8h11.195c.463 0 .84-.358.84-.8v-1.864c0-.884-.753-1.6-1.68-1.6v-1.44c-.002-1.492-.77-2.888-2.058-3.737 1.28-.85 2.04-2.243 2.033-3.729zm-9.54-3.04v-1.064h9.565v1.064h-9.566zm9.565 13.546v1.064h-9.566v-1.064h9.566zm-1.68-3.04v1.44h-6.156v-1.44c-.06-1.085.514-2.112 1.49-2.67a3.214 3.214 0 013.176 0c.976.558 1.55 1.585 1.49 2.67zm0-7.466c-.085 1.56-1.438 2.784-3.078 2.784s-2.992-1.223-3.078-2.784v-1.44h6.131l.025 1.44z" transform="translate(1.329 1.26)"/>
        <path stroke="#005192" d="M6.434 7.355h21.903M6.434 11.45h21.903M6.434 15.546h21.903M6.434 19.641h12.501" transform="translate(1.329 1.26)"/>
    </g>
</svg>
