<svg xmlns="http://www.w3.org/2000/svg" width="44" height="45" viewBox="0 0 44 45">
    <g fill="none" fill-rule="evenodd">
        <path stroke="#005192" stroke-width="1.7" d="M35.901 22.56V2.02a2 2 0 00-2-2H2.21a2 2 0 00-2 2v38.496a2 2 0 002 2H19.31" transform="translate(1.009 1.47)"/>
        <g fill="#B02A30" stroke="#B02A30" stroke-width=".5">
            <path stroke-linecap="round" d="M3.63 13.561C1.012 11.067.792 7.168 2.948 4.444c.198-.273.418-.524.682-.776a.808.808 0 000-1.195.907.907 0 00-1.254 0c-3.168 3.019-3.168 7.944 0 10.962 2.002 1.908 4.862 2.662 7.59 2.075-2.244.336-4.598-.314-6.336-1.949z" transform="translate(1.009 1.47) translate(25.751 26.79)"/>
            <path d="M6.248.42c2.266-.357 4.664.293 6.402 1.948 2.706 2.579 2.86 6.666.462 9.411a3.22 3.22 0 01-.462.483.808.808 0 000 1.194.907.907 0 001.254 0c3.168-3.018 3.168-7.944 0-10.962C11.88.566 8.998-.21 6.248.42z" transform="translate(1.009 1.47) translate(25.751 26.79)"/>
        </g>
        <path stroke="#005192" d="M6.702 7.624h22.706M6.702 11.87h22.706M6.702 16.115h22.706M6.702 20.36h12.96" transform="translate(1.009 1.47)"/>
    </g>
</svg>
