<svg xmlns="http://www.w3.org/2000/svg" width="55" height="32" viewBox="0 0 55 32">
    <g fill="none" fill-rule="evenodd">
        <path stroke="#005192" d="M0 0.937L24.182 15.75 47.932 0.937" transform="translate(1 1)"/>
        <path stroke="#005192" stroke-width="1.7" d="M48.692 12.469V2c0-1.105-.895-2-2-2H2C.895 0 0 .895 0 2v25.496c0 1.104.895 2 2 2h36.24" transform="translate(1 1)"/>
        <path fill="#B02A30" fill-rule="nonzero" d="M52.154 19.324v-1.218c.784 0 1.42-.605 1.42-1.353v-1.576c0-.374-.318-.676-.71-.676h-9.486c-.393 0-.71.302-.71.676v1.576c0 .748.635 1.353 1.42 1.353v1.218c.002 1.26.655 2.44 1.746 3.153-1.074.725-1.71 1.904-1.704 3.159v1.218c-.784 0-1.42.605-1.42 1.353v1.576c0 .373.318.676.71.676h9.465c.393 0 .71-.303.71-.676v-1.576c0-.748-.635-1.353-1.42-1.353v-1.218c-.001-1.261-.651-2.441-1.74-3.16 1.082-.717 1.725-1.896 1.72-3.152zm-8.066-2.57v-.9h8.087v.9h-8.087zm8.087 11.453v.9h-8.087v-.9h8.087zm-1.42-2.571v1.218H45.55v-1.218c-.05-.917.435-1.785 1.26-2.258.827-.473 1.859-.473 2.685 0 .826.473 1.31 1.341 1.26 2.258zm0-6.312c-.072 1.32-1.216 2.353-2.602 2.353-1.387 0-2.53-1.034-2.603-2.353v-1.218h5.184l.021 1.218z" transform="translate(1 1)"/>
    </g>
</svg>
