<svg xmlns="http://www.w3.org/2000/svg" width="45" height="44" viewBox="0 0 45 44">
    <g fill="none" fill-rule="evenodd" transform="translate(1.12 1.786)">
        <ellipse cx="22.134" cy="9.405" stroke="#005192" stroke-width="1.7" rx="9.872" ry="9.405"/>
        <path stroke="#005192" stroke-width="1.7" d="M21.399 23.366C9.545 23.366 0 31.155 0 40.482h42.92"/>
        <path fill="#B02A30" fill-rule="nonzero" d="M38.32 27.047V25.83c.785 0 1.42-.606 1.42-1.353V22.9c0-.373-.317-.676-.71-.676h-9.486c-.392 0-.71.303-.71.676v1.577c0 .747.636 1.353 1.42 1.353v1.217c.002 1.261.655 2.44 1.747 3.153-1.075.725-1.71 1.904-1.705 3.16v1.217c-.784 0-1.42.606-1.42 1.353v1.576c0 .374.318.677.71.677h9.466c.392 0 .71-.303.71-.677V35.93c0-.747-.636-1.353-1.42-1.353v-1.218c-.002-1.26-.652-2.441-1.74-3.16 1.082-.717 1.724-1.896 1.718-3.152zm-8.066-2.57v-.9h8.088v.9h-8.088zm8.088 11.453v.9h-8.088v-.9h8.088zm-1.42-2.57v1.217h-5.205v-1.218c-.05-.917.434-1.785 1.26-2.258a2.717 2.717 0 012.684 0c.826.473 1.31 1.341 1.26 2.258zm0-6.313c-.073 1.32-1.217 2.354-2.603 2.354-1.386 0-2.53-1.035-2.602-2.354V25.83H36.9l.021 1.217z"/>
    </g>
</svg>
