<?xml version="1.0" encoding="utf-8"?>
<!-- Generator: Adobe Illustrator 22.0.1, SVG Export Plug-In . SVG Version: 6.00 Build 0)  -->
<svg version="1.1" id="Layer_1" xmlns="http://www.w3.org/2000/svg" xmlns:xlink="http://www.w3.org/1999/xlink" x="0px" y="0px"
	 viewBox="0 0 330 330" style="enable-background:new 0 0 330 330;" xml:space="preserve">
<g id="XMLID_2_">
	<path id="XMLID_4_" d="M278.8,150H105c-8.3,0-15,6.7-15,15s6.7,15,15,15h173.8l-19.4,19.4c-5.9,5.9-5.9,15.4,0,21.2
		c5.9,5.9,15.4,5.9,21.2,0l45-45c0.3-0.3,0.7-0.7,1-1.1c0.1-0.1,0.1-0.2,0.2-0.3c0.2-0.3,0.5-0.6,0.7-0.9c0.1-0.1,0.1-0.2,0.2-0.3
		c0.2-0.3,0.4-0.6,0.6-1c0-0.1,0.1-0.1,0.1-0.2c0.2-0.4,0.4-0.7,0.5-1.1c0,0,0-0.1,0.1-0.1c0.2-0.4,0.3-0.8,0.4-1.2
		c0-0.1,0-0.1,0-0.2c0.1-0.4,0.2-0.8,0.3-1.3c0-0.1,0-0.3,0.1-0.4c0.1-0.4,0.1-0.7,0.2-1.1c0.1-0.5,0.1-1,0.1-1.5s0-1-0.1-1.5
		c0-0.4-0.1-0.7-0.2-1.1c0-0.1,0-0.3-0.1-0.4c-0.1-0.4-0.2-0.9-0.3-1.3c0,0,0-0.1,0-0.1c-0.1-0.4-0.3-0.8-0.4-1.2c0,0,0-0.1,0-0.1
		c-0.2-0.4-0.3-0.8-0.5-1.1c0-0.1-0.1-0.1-0.1-0.2c-0.2-0.3-0.4-0.7-0.6-1c-0.1-0.1-0.1-0.2-0.2-0.3c-0.2-0.3-0.4-0.6-0.7-0.9
		c-0.1-0.1-0.1-0.2-0.2-0.3c-0.3-0.4-0.6-0.7-1-1.1l-45-45c-2.9-2.9-6.8-4.4-10.6-4.4s-7.7,1.5-10.6,4.4c-5.9,5.9-5.9,15.4,0,21.2
		L278.8,150z"/>
	<path id="XMLID_5_" d="M122.7,287.7c40.9,0,79-20.3,101.9-54.3c4.6-6.9,2.8-16.2-4.1-20.8c-6.9-4.6-16.2-2.8-20.8,4.1
		c-17.3,25.7-46.1,41.1-77,41.1C71.6,257.7,30,216.1,30,165s41.6-92.7,92.7-92.7c30.8,0,59.6,15.3,76.9,40.9c4.6,6.9,14,8.7,20.8,4
		c6.9-4.6,8.7-14,4-20.8c-22.9-33.9-60.9-54.1-101.7-54.1C55,42.3,0,97.3,0,165S55,287.7,122.7,287.7z"/>
</g>
</svg>
