<svg xmlns="http://www.w3.org/2000/svg" xmlns:xlink="http://www.w3.org/1999/xlink" width="68" height="60" viewBox="0 0 68 60">
    <defs>
        <path id="a" d="M0 .122h67.301v59.644H.001z"/>
    </defs>
    <g fill="none" fill-rule="evenodd">
        <path fill="#C9C9C9" d="M29.82 3.15L1.303 52.538c-1.703 2.95.426 6.636 3.831 6.636h57.03c3.406 0 5.535-3.687 3.832-6.636L37.482 3.149c-1.703-2.95-5.96-2.95-7.663 0"/>
        <g transform="translate(0 .113)">
            <mask id="b" fill="#fff">
                <use xlink:href="#a"/>
            </mask>
            <path fill="#000" d="M30.428 3.388L1.913 52.778a3.683 3.683 0 0 0 0 3.72 3.684 3.684 0 0 0 3.222 1.861h57.03c1.346 0 2.55-.695 3.223-1.86a3.683 3.683 0 0 0 0-3.721L36.873 3.388a3.683 3.683 0 0 0-3.222-1.86c-1.346 0-2.55.695-3.223 1.86m31.738 56.378H5.136a5.075 5.075 0 0 1-4.44-2.564 5.076 5.076 0 0 1 0-5.127L29.21 2.685A5.075 5.075 0 0 1 33.65.121c1.854 0 3.514.959 4.44 2.564l28.516 49.39a5.076 5.076 0 0 1 0 5.127 5.075 5.075 0 0 1-4.44 2.564" mask="url(#b)"/>
        </g>
        <path fill="#000" d="M33.077 38.263c-.154-.164-.241-.388-.263-.673l-.787-14.864c-.044-.503.087-.902.393-1.197.307-.295.71-.443 1.214-.443.503 0 .908.148 1.215.443.305.295.437.694.393 1.197l-.787 14.864c-.022.307-.11.537-.263.69a.76.76 0 0 1-.558.23.734.734 0 0 1-.557-.247m-.722 5.775c-.35-.339-.525-.782-.525-1.329 0-.546.175-.995.525-1.345.35-.35.787-.525 1.312-.525.503 0 .924.175 1.264.525.338.35.508.799.508 1.345 0 .547-.17.99-.508 1.33-.34.339-.76.508-1.264.508-.525 0-.963-.17-1.312-.509"/>
    </g>
</svg>
