<svg xmlns="http://www.w3.org/2000/svg" width="41" height="38" viewBox="0 0 41 38">
    <g fill="none" fill-rule="evenodd">
        <path stroke="#005192" stroke-width="1.7" d="M35.5 6V2.28c0-1.105-.896-2-2-2H2.498c-1.104 0-2 .895-2 2v31c0 1.104.896 2 2 2H19.23" transform="translate(1 1)"/>
        <g>
            <path fill="#B02A30" d="M12 1.025c-.258-.195-.621-.148-.811.105L3.452 11.397c-.047.062-.08.133-.098.208l-.835 5.73c-.054.225.032.462.22.604.187.14.439.159.64.044l5.278-2.382c.067-.038.126-.09.173-.151l7.737-10.267c.19-.253.135-.615-.124-.81l-4.442-3.348z" transform="translate(1 1) translate(23 10)"/>
            <path fill="#FFF" d="M10.619 16.221L8.024 16.221 6.821 14.608 6.821 2.182 9.086 2.182 9.973 2.191 11.821 2.182 11.821 14.608z" transform="translate(1 1) translate(23 10) rotate(37 9.321 9.202)"/>
        </g>
        <path stroke="#B02A30" d="M5 25c.667-3.333 1.667-4.667 3-4 1.333.667 2 2 2 4s.333 3.333 1 4c1 1 2-4 4-4 1.333 0 2.755.667 4.264 2 1.486 1.333 2.493 1.667 3.02 1 .525-.667 1.348-1 2.468-1" transform="translate(1 1)"/>
    </g>
</svg>
